<mxfile host="Electron" modified="2023-09-29T09:15:33.032Z" agent="Mozilla/5.0 (Windows NT 10.0; Win64; x64) AppleWebKit/537.36 (KHTML, like Gecko) draw.io/21.2.8 Chrome/112.0.5615.165 Electron/24.2.0 Safari/537.36" etag="_CUNaXr0LouZg-BILqL7" version="21.2.8" type="device">
  <diagram id="R2lEEEUBdFMjLlhIrx00" name="Page-1">
    <mxGraphModel dx="2160" dy="1290" grid="1" gridSize="10" guides="1" tooltips="1" connect="1" arrows="1" fold="1" page="1" pageScale="1" pageWidth="850" pageHeight="1100" math="0" shadow="0" extFonts="Permanent Marker^https://fonts.googleapis.com/css?family=Permanent+Marker">
      <root>
        <mxCell id="0" />
        <mxCell id="1" parent="0" />
        <mxCell id="_fpL3KS8KS125suL3_Od-5" value="&lt;b&gt;menu&lt;/b&gt;" style="rounded=1;whiteSpace=wrap;html=1;fillColor=#1ba1e2;fontColor=#ffffff;strokeColor=#006EAF;" vertex="1" parent="1">
          <mxGeometry x="350" y="280" width="120" height="60" as="geometry" />
        </mxCell>
        <mxCell id="_fpL3KS8KS125suL3_Od-34" value="" style="endArrow=none;html=1;rounded=0;" edge="1" parent="1" source="_fpL3KS8KS125suL3_Od-33" target="_fpL3KS8KS125suL3_Od-5">
          <mxGeometry width="50" height="50" relative="1" as="geometry">
            <mxPoint x="640" y="620" as="sourcePoint" />
            <mxPoint x="690" y="570" as="targetPoint" />
          </mxGeometry>
        </mxCell>
        <mxCell id="_fpL3KS8KS125suL3_Od-186" value="&lt;b&gt;suggestion&lt;/b&gt;" style="rounded=1;whiteSpace=wrap;html=1;fillColor=#1ba1e2;fontColor=#ffffff;strokeColor=#006EAF;" vertex="1" parent="1">
          <mxGeometry x="1568" y="590" width="120" height="60" as="geometry" />
        </mxCell>
        <mxCell id="_fpL3KS8KS125suL3_Od-187" value="" style="group" vertex="1" connectable="0" parent="1">
          <mxGeometry x="1438" y="640" width="110" height="50" as="geometry" />
        </mxCell>
        <mxCell id="_fpL3KS8KS125suL3_Od-188" value="Customer Id" style="ellipse;whiteSpace=wrap;html=1;fillColor=#ffcd28;strokeColor=#d79b00;gradientColor=#ffa500;" vertex="1" parent="_fpL3KS8KS125suL3_Od-187">
          <mxGeometry width="110" height="50" as="geometry" />
        </mxCell>
        <mxCell id="_fpL3KS8KS125suL3_Od-189" value="" style="endArrow=none;html=1;rounded=0;" edge="1" parent="1" source="_fpL3KS8KS125suL3_Od-188">
          <mxGeometry width="50" height="50" relative="1" as="geometry">
            <mxPoint x="1853" y="930" as="sourcePoint" />
            <mxPoint x="1568" y="640" as="targetPoint" />
          </mxGeometry>
        </mxCell>
        <mxCell id="_fpL3KS8KS125suL3_Od-190" value="" style="endArrow=none;html=1;rounded=0;" edge="1" parent="1" source="_fpL3KS8KS125suL3_Od-191">
          <mxGeometry width="50" height="50" relative="1" as="geometry">
            <mxPoint x="1943" y="750" as="sourcePoint" />
            <mxPoint x="1568" y="613" as="targetPoint" />
          </mxGeometry>
        </mxCell>
        <mxCell id="_fpL3KS8KS125suL3_Od-191" value="Created At" style="ellipse;whiteSpace=wrap;html=1;fillColor=#ffcd28;strokeColor=#d79b00;gradientColor=#ffa500;" vertex="1" parent="1">
          <mxGeometry x="1428" y="580" width="110" height="50" as="geometry" />
        </mxCell>
        <mxCell id="_fpL3KS8KS125suL3_Od-192" value="" style="endArrow=none;html=1;rounded=0;" edge="1" parent="1">
          <mxGeometry width="50" height="50" relative="1" as="geometry">
            <mxPoint x="1530" y="550" as="sourcePoint" />
            <mxPoint x="1568" y="596" as="targetPoint" />
          </mxGeometry>
        </mxCell>
        <mxCell id="_fpL3KS8KS125suL3_Od-193" value="Updated At" style="ellipse;whiteSpace=wrap;html=1;fillColor=#ffcd28;strokeColor=#d79b00;gradientColor=#ffa500;" vertex="1" parent="1">
          <mxGeometry x="1458" y="510" width="110" height="50" as="geometry" />
        </mxCell>
        <mxCell id="_fpL3KS8KS125suL3_Od-194" value="" style="group" vertex="1" connectable="0" parent="1">
          <mxGeometry x="1573" y="490" width="110" height="50" as="geometry" />
        </mxCell>
        <mxCell id="_fpL3KS8KS125suL3_Od-195" value="&lt;b&gt;&lt;u&gt;Id&lt;/u&gt;&lt;/b&gt;" style="ellipse;whiteSpace=wrap;html=1;fillColor=#ffcd28;strokeColor=#d79b00;gradientColor=#ffa500;" vertex="1" parent="_fpL3KS8KS125suL3_Od-194">
          <mxGeometry width="110" height="50" as="geometry" />
        </mxCell>
        <mxCell id="_fpL3KS8KS125suL3_Od-198" value="" style="group" vertex="1" connectable="0" parent="1">
          <mxGeometry x="1688" y="510" width="110" height="50" as="geometry" />
        </mxCell>
        <mxCell id="_fpL3KS8KS125suL3_Od-199" value="Suggestion" style="ellipse;whiteSpace=wrap;html=1;fillColor=#ffcd28;strokeColor=#d79b00;gradientColor=#ffa500;" vertex="1" parent="_fpL3KS8KS125suL3_Od-198">
          <mxGeometry x="-2" width="110" height="50" as="geometry" />
        </mxCell>
        <mxCell id="_fpL3KS8KS125suL3_Od-200" value="" style="endArrow=none;html=1;rounded=0;exitX=0.5;exitY=1;exitDx=0;exitDy=0;" edge="1" parent="1" source="_fpL3KS8KS125suL3_Od-195" target="_fpL3KS8KS125suL3_Od-186">
          <mxGeometry width="50" height="50" relative="1" as="geometry">
            <mxPoint x="1513" y="580" as="sourcePoint" />
            <mxPoint x="1578" y="606" as="targetPoint" />
          </mxGeometry>
        </mxCell>
        <mxCell id="_fpL3KS8KS125suL3_Od-202" value="" style="endArrow=none;html=1;rounded=0;" edge="1" parent="1" source="_fpL3KS8KS125suL3_Od-199" target="_fpL3KS8KS125suL3_Od-186">
          <mxGeometry width="50" height="50" relative="1" as="geometry">
            <mxPoint x="1533" y="600" as="sourcePoint" />
            <mxPoint x="1598" y="626" as="targetPoint" />
          </mxGeometry>
        </mxCell>
        <mxCell id="_fpL3KS8KS125suL3_Od-206" value="" style="group" vertex="1" connectable="0" parent="1">
          <mxGeometry x="1080" y="710" width="398" height="200" as="geometry" />
        </mxCell>
        <mxCell id="_fpL3KS8KS125suL3_Od-166" value="&lt;b&gt;Staff&lt;/b&gt;" style="rounded=1;whiteSpace=wrap;html=1;fillColor=#1ba1e2;fontColor=#ffffff;strokeColor=#006EAF;" vertex="1" parent="_fpL3KS8KS125suL3_Od-206">
          <mxGeometry x="140" y="100" width="120" height="60" as="geometry" />
        </mxCell>
        <mxCell id="_fpL3KS8KS125suL3_Od-167" value="" style="group" vertex="1" connectable="0" parent="_fpL3KS8KS125suL3_Od-206">
          <mxGeometry x="10" y="150" width="110" height="50" as="geometry" />
        </mxCell>
        <mxCell id="_fpL3KS8KS125suL3_Od-168" value="Active" style="ellipse;whiteSpace=wrap;html=1;fillColor=#ffcd28;strokeColor=#d79b00;gradientColor=#ffa500;" vertex="1" parent="_fpL3KS8KS125suL3_Od-167">
          <mxGeometry width="110" height="50" as="geometry" />
        </mxCell>
        <mxCell id="_fpL3KS8KS125suL3_Od-169" value="" style="endArrow=none;html=1;rounded=0;" edge="1" parent="_fpL3KS8KS125suL3_Od-206" source="_fpL3KS8KS125suL3_Od-168">
          <mxGeometry width="50" height="50" relative="1" as="geometry">
            <mxPoint x="425" y="440" as="sourcePoint" />
            <mxPoint x="140" y="150" as="targetPoint" />
          </mxGeometry>
        </mxCell>
        <mxCell id="_fpL3KS8KS125suL3_Od-170" value="" style="endArrow=none;html=1;rounded=0;" edge="1" parent="_fpL3KS8KS125suL3_Od-206" source="_fpL3KS8KS125suL3_Od-171">
          <mxGeometry width="50" height="50" relative="1" as="geometry">
            <mxPoint x="515" y="260" as="sourcePoint" />
            <mxPoint x="140" y="123" as="targetPoint" />
          </mxGeometry>
        </mxCell>
        <mxCell id="_fpL3KS8KS125suL3_Od-171" value="Created At" style="ellipse;whiteSpace=wrap;html=1;fillColor=#ffcd28;strokeColor=#d79b00;gradientColor=#ffa500;" vertex="1" parent="_fpL3KS8KS125suL3_Od-206">
          <mxGeometry y="90" width="110" height="50" as="geometry" />
        </mxCell>
        <mxCell id="_fpL3KS8KS125suL3_Od-172" value="" style="endArrow=none;html=1;rounded=0;exitX=0.5;exitY=1;exitDx=0;exitDy=0;" edge="1" parent="_fpL3KS8KS125suL3_Od-206" source="_fpL3KS8KS125suL3_Od-173">
          <mxGeometry width="50" height="50" relative="1" as="geometry">
            <mxPoint x="250" as="sourcePoint" />
            <mxPoint x="140" y="106" as="targetPoint" />
          </mxGeometry>
        </mxCell>
        <mxCell id="_fpL3KS8KS125suL3_Od-173" value="Updated At" style="ellipse;whiteSpace=wrap;html=1;fillColor=#ffcd28;strokeColor=#d79b00;gradientColor=#ffa500;" vertex="1" parent="_fpL3KS8KS125suL3_Od-206">
          <mxGeometry x="20" y="30" width="110" height="50" as="geometry" />
        </mxCell>
        <mxCell id="_fpL3KS8KS125suL3_Od-174" value="" style="group" vertex="1" connectable="0" parent="_fpL3KS8KS125suL3_Od-206">
          <mxGeometry x="145" width="110" height="50" as="geometry" />
        </mxCell>
        <mxCell id="_fpL3KS8KS125suL3_Od-175" value="&lt;b&gt;&lt;u&gt;Id&lt;/u&gt;&lt;/b&gt;" style="ellipse;whiteSpace=wrap;html=1;fillColor=#ffcd28;strokeColor=#d79b00;gradientColor=#ffa500;" vertex="1" parent="_fpL3KS8KS125suL3_Od-174">
          <mxGeometry width="110" height="50" as="geometry" />
        </mxCell>
        <mxCell id="_fpL3KS8KS125suL3_Od-176" value="" style="group" vertex="1" connectable="0" parent="_fpL3KS8KS125suL3_Od-206">
          <mxGeometry x="255" y="20" width="110" height="50" as="geometry" />
        </mxCell>
        <mxCell id="_fpL3KS8KS125suL3_Od-177" value="Name" style="ellipse;whiteSpace=wrap;html=1;fillColor=#ffcd28;strokeColor=#d79b00;gradientColor=#ffa500;" vertex="1" parent="_fpL3KS8KS125suL3_Od-176">
          <mxGeometry width="110" height="50" as="geometry" />
        </mxCell>
        <mxCell id="_fpL3KS8KS125suL3_Od-178" value="" style="group" vertex="1" connectable="0" parent="_fpL3KS8KS125suL3_Od-206">
          <mxGeometry x="280" y="70" width="110" height="50" as="geometry" />
        </mxCell>
        <mxCell id="_fpL3KS8KS125suL3_Od-179" value="Type" style="ellipse;whiteSpace=wrap;html=1;fillColor=#ffcd28;strokeColor=#d79b00;gradientColor=#ffa500;" vertex="1" parent="_fpL3KS8KS125suL3_Od-178">
          <mxGeometry x="-2" width="110" height="50" as="geometry" />
        </mxCell>
        <mxCell id="_fpL3KS8KS125suL3_Od-180" value="" style="endArrow=none;html=1;rounded=0;exitX=0.5;exitY=1;exitDx=0;exitDy=0;" edge="1" parent="_fpL3KS8KS125suL3_Od-206" source="_fpL3KS8KS125suL3_Od-175" target="_fpL3KS8KS125suL3_Od-166">
          <mxGeometry width="50" height="50" relative="1" as="geometry">
            <mxPoint x="85" y="90" as="sourcePoint" />
            <mxPoint x="150" y="116" as="targetPoint" />
          </mxGeometry>
        </mxCell>
        <mxCell id="_fpL3KS8KS125suL3_Od-181" value="" style="endArrow=none;html=1;rounded=0;" edge="1" parent="_fpL3KS8KS125suL3_Od-206" source="_fpL3KS8KS125suL3_Od-177" target="_fpL3KS8KS125suL3_Od-166">
          <mxGeometry width="50" height="50" relative="1" as="geometry">
            <mxPoint x="95" y="100" as="sourcePoint" />
            <mxPoint x="160" y="126" as="targetPoint" />
          </mxGeometry>
        </mxCell>
        <mxCell id="_fpL3KS8KS125suL3_Od-182" value="" style="endArrow=none;html=1;rounded=0;" edge="1" parent="_fpL3KS8KS125suL3_Od-206" source="_fpL3KS8KS125suL3_Od-179" target="_fpL3KS8KS125suL3_Od-166">
          <mxGeometry width="50" height="50" relative="1" as="geometry">
            <mxPoint x="105" y="110" as="sourcePoint" />
            <mxPoint x="170" y="136" as="targetPoint" />
          </mxGeometry>
        </mxCell>
        <mxCell id="_fpL3KS8KS125suL3_Od-183" value="" style="group" vertex="1" connectable="0" parent="_fpL3KS8KS125suL3_Od-206">
          <mxGeometry x="288" y="145" width="110" height="50" as="geometry" />
        </mxCell>
        <mxCell id="_fpL3KS8KS125suL3_Od-184" value="Contact" style="ellipse;whiteSpace=wrap;html=1;fillColor=#ffcd28;strokeColor=#d79b00;gradientColor=#ffa500;" vertex="1" parent="_fpL3KS8KS125suL3_Od-183">
          <mxGeometry x="-2" width="110" height="50" as="geometry" />
        </mxCell>
        <mxCell id="_fpL3KS8KS125suL3_Od-185" value="" style="endArrow=none;html=1;rounded=0;entryX=1;entryY=0.75;entryDx=0;entryDy=0;" edge="1" parent="_fpL3KS8KS125suL3_Od-206" source="_fpL3KS8KS125suL3_Od-184" target="_fpL3KS8KS125suL3_Od-166">
          <mxGeometry width="50" height="50" relative="1" as="geometry">
            <mxPoint x="113" y="165" as="sourcePoint" />
            <mxPoint x="268" y="178" as="targetPoint" />
          </mxGeometry>
        </mxCell>
        <mxCell id="_fpL3KS8KS125suL3_Od-207" value="" style="group" vertex="1" connectable="0" parent="1">
          <mxGeometry x="649" y="729" width="390" height="200" as="geometry" />
        </mxCell>
        <mxCell id="_fpL3KS8KS125suL3_Od-118" value="&lt;b&gt;tables&lt;/b&gt;" style="rounded=1;whiteSpace=wrap;html=1;fillColor=#1ba1e2;fontColor=#ffffff;strokeColor=#006EAF;" vertex="1" parent="_fpL3KS8KS125suL3_Od-207">
          <mxGeometry x="140" y="100" width="120" height="60" as="geometry" />
        </mxCell>
        <mxCell id="_fpL3KS8KS125suL3_Od-119" value="" style="group" vertex="1" connectable="0" parent="_fpL3KS8KS125suL3_Od-207">
          <mxGeometry x="10" y="150" width="110" height="50" as="geometry" />
        </mxCell>
        <mxCell id="_fpL3KS8KS125suL3_Od-120" value="Active" style="ellipse;whiteSpace=wrap;html=1;fillColor=#ffcd28;strokeColor=#d79b00;gradientColor=#ffa500;" vertex="1" parent="_fpL3KS8KS125suL3_Od-119">
          <mxGeometry width="110" height="50" as="geometry" />
        </mxCell>
        <mxCell id="_fpL3KS8KS125suL3_Od-121" value="" style="endArrow=none;html=1;rounded=0;" edge="1" parent="_fpL3KS8KS125suL3_Od-207" source="_fpL3KS8KS125suL3_Od-120">
          <mxGeometry width="50" height="50" relative="1" as="geometry">
            <mxPoint x="425" y="440" as="sourcePoint" />
            <mxPoint x="140" y="150" as="targetPoint" />
          </mxGeometry>
        </mxCell>
        <mxCell id="_fpL3KS8KS125suL3_Od-122" value="" style="endArrow=none;html=1;rounded=0;" edge="1" parent="_fpL3KS8KS125suL3_Od-207" source="_fpL3KS8KS125suL3_Od-123">
          <mxGeometry width="50" height="50" relative="1" as="geometry">
            <mxPoint x="515" y="260" as="sourcePoint" />
            <mxPoint x="140" y="123" as="targetPoint" />
          </mxGeometry>
        </mxCell>
        <mxCell id="_fpL3KS8KS125suL3_Od-123" value="Created At" style="ellipse;whiteSpace=wrap;html=1;fillColor=#ffcd28;strokeColor=#d79b00;gradientColor=#ffa500;" vertex="1" parent="_fpL3KS8KS125suL3_Od-207">
          <mxGeometry y="90" width="110" height="50" as="geometry" />
        </mxCell>
        <mxCell id="_fpL3KS8KS125suL3_Od-124" value="" style="endArrow=none;html=1;rounded=0;exitX=0.5;exitY=1;exitDx=0;exitDy=0;" edge="1" parent="_fpL3KS8KS125suL3_Od-207" source="_fpL3KS8KS125suL3_Od-125">
          <mxGeometry width="50" height="50" relative="1" as="geometry">
            <mxPoint x="250" as="sourcePoint" />
            <mxPoint x="140" y="106" as="targetPoint" />
          </mxGeometry>
        </mxCell>
        <mxCell id="_fpL3KS8KS125suL3_Od-125" value="Updated At" style="ellipse;whiteSpace=wrap;html=1;fillColor=#ffcd28;strokeColor=#d79b00;gradientColor=#ffa500;" vertex="1" parent="_fpL3KS8KS125suL3_Od-207">
          <mxGeometry x="20" y="30" width="110" height="50" as="geometry" />
        </mxCell>
        <mxCell id="_fpL3KS8KS125suL3_Od-126" value="" style="group" vertex="1" connectable="0" parent="_fpL3KS8KS125suL3_Od-207">
          <mxGeometry x="145" width="110" height="50" as="geometry" />
        </mxCell>
        <mxCell id="_fpL3KS8KS125suL3_Od-127" value="&lt;b&gt;&lt;u&gt;Id&lt;/u&gt;&lt;/b&gt;" style="ellipse;whiteSpace=wrap;html=1;fillColor=#ffcd28;strokeColor=#d79b00;gradientColor=#ffa500;" vertex="1" parent="_fpL3KS8KS125suL3_Od-126">
          <mxGeometry width="110" height="50" as="geometry" />
        </mxCell>
        <mxCell id="_fpL3KS8KS125suL3_Od-128" value="" style="group" vertex="1" connectable="0" parent="_fpL3KS8KS125suL3_Od-207">
          <mxGeometry x="255" y="30" width="110" height="50" as="geometry" />
        </mxCell>
        <mxCell id="_fpL3KS8KS125suL3_Od-129" value="Seats" style="ellipse;whiteSpace=wrap;html=1;fillColor=#ffcd28;strokeColor=#d79b00;gradientColor=#ffa500;" vertex="1" parent="_fpL3KS8KS125suL3_Od-128">
          <mxGeometry width="110" height="50" as="geometry" />
        </mxCell>
        <mxCell id="_fpL3KS8KS125suL3_Od-130" value="" style="group" vertex="1" connectable="0" parent="_fpL3KS8KS125suL3_Od-207">
          <mxGeometry x="280" y="90" width="110" height="50" as="geometry" />
        </mxCell>
        <mxCell id="_fpL3KS8KS125suL3_Od-131" value="Located" style="ellipse;whiteSpace=wrap;html=1;fillColor=#ffcd28;strokeColor=#d79b00;gradientColor=#ffa500;" vertex="1" parent="_fpL3KS8KS125suL3_Od-130">
          <mxGeometry x="-2" width="110" height="50" as="geometry" />
        </mxCell>
        <mxCell id="_fpL3KS8KS125suL3_Od-132" value="" style="endArrow=none;html=1;rounded=0;exitX=0.5;exitY=1;exitDx=0;exitDy=0;" edge="1" parent="_fpL3KS8KS125suL3_Od-207" source="_fpL3KS8KS125suL3_Od-127" target="_fpL3KS8KS125suL3_Od-118">
          <mxGeometry width="50" height="50" relative="1" as="geometry">
            <mxPoint x="85" y="90" as="sourcePoint" />
            <mxPoint x="150" y="116" as="targetPoint" />
          </mxGeometry>
        </mxCell>
        <mxCell id="_fpL3KS8KS125suL3_Od-133" value="" style="endArrow=none;html=1;rounded=0;" edge="1" parent="_fpL3KS8KS125suL3_Od-207" source="_fpL3KS8KS125suL3_Od-129" target="_fpL3KS8KS125suL3_Od-118">
          <mxGeometry width="50" height="50" relative="1" as="geometry">
            <mxPoint x="95" y="100" as="sourcePoint" />
            <mxPoint x="160" y="126" as="targetPoint" />
          </mxGeometry>
        </mxCell>
        <mxCell id="_fpL3KS8KS125suL3_Od-134" value="" style="endArrow=none;html=1;rounded=0;" edge="1" parent="_fpL3KS8KS125suL3_Od-207" source="_fpL3KS8KS125suL3_Od-131" target="_fpL3KS8KS125suL3_Od-118">
          <mxGeometry width="50" height="50" relative="1" as="geometry">
            <mxPoint x="105" y="110" as="sourcePoint" />
            <mxPoint x="170" y="136" as="targetPoint" />
          </mxGeometry>
        </mxCell>
        <mxCell id="_fpL3KS8KS125suL3_Od-208" value="" style="group" vertex="1" connectable="0" parent="1">
          <mxGeometry x="166" y="779" width="380" height="200" as="geometry" />
        </mxCell>
        <mxCell id="_fpL3KS8KS125suL3_Od-244" value="" style="edgeStyle=orthogonalEdgeStyle;rounded=0;orthogonalLoop=1;jettySize=auto;html=1;" edge="1" parent="_fpL3KS8KS125suL3_Od-208" source="_fpL3KS8KS125suL3_Od-8" target="_fpL3KS8KS125suL3_Od-114">
          <mxGeometry relative="1" as="geometry" />
        </mxCell>
        <mxCell id="_fpL3KS8KS125suL3_Od-8" value="&lt;b&gt;tablesReservation&lt;/b&gt;" style="rounded=1;whiteSpace=wrap;html=1;fillColor=#1ba1e2;fontColor=#ffffff;strokeColor=#006EAF;" vertex="1" parent="_fpL3KS8KS125suL3_Od-208">
          <mxGeometry x="130" y="100" width="120" height="60" as="geometry" />
        </mxCell>
        <mxCell id="_fpL3KS8KS125suL3_Od-99" value="" style="group" vertex="1" connectable="0" parent="_fpL3KS8KS125suL3_Od-208">
          <mxGeometry y="150" width="110" height="50" as="geometry" />
        </mxCell>
        <mxCell id="_fpL3KS8KS125suL3_Od-100" value="Active" style="ellipse;whiteSpace=wrap;html=1;fillColor=#ffcd28;strokeColor=#d79b00;gradientColor=#ffa500;" vertex="1" parent="_fpL3KS8KS125suL3_Od-99">
          <mxGeometry width="110" height="50" as="geometry" />
        </mxCell>
        <mxCell id="_fpL3KS8KS125suL3_Od-101" value="" style="endArrow=none;html=1;rounded=0;" edge="1" parent="_fpL3KS8KS125suL3_Od-208" source="_fpL3KS8KS125suL3_Od-100">
          <mxGeometry width="50" height="50" relative="1" as="geometry">
            <mxPoint x="415" y="440" as="sourcePoint" />
            <mxPoint x="130" y="150" as="targetPoint" />
          </mxGeometry>
        </mxCell>
        <mxCell id="_fpL3KS8KS125suL3_Od-102" value="" style="endArrow=none;html=1;rounded=0;" edge="1" parent="_fpL3KS8KS125suL3_Od-208" source="_fpL3KS8KS125suL3_Od-103">
          <mxGeometry width="50" height="50" relative="1" as="geometry">
            <mxPoint x="505" y="260" as="sourcePoint" />
            <mxPoint x="130" y="123" as="targetPoint" />
          </mxGeometry>
        </mxCell>
        <mxCell id="_fpL3KS8KS125suL3_Od-104" value="" style="endArrow=none;html=1;rounded=0;exitX=0.5;exitY=1;exitDx=0;exitDy=0;" edge="1" parent="_fpL3KS8KS125suL3_Od-208" source="_fpL3KS8KS125suL3_Od-105">
          <mxGeometry width="50" height="50" relative="1" as="geometry">
            <mxPoint x="240" as="sourcePoint" />
            <mxPoint x="130" y="106" as="targetPoint" />
          </mxGeometry>
        </mxCell>
        <mxCell id="_fpL3KS8KS125suL3_Od-105" value="Updated At" style="ellipse;whiteSpace=wrap;html=1;fillColor=#ffcd28;strokeColor=#d79b00;gradientColor=#ffa500;" vertex="1" parent="_fpL3KS8KS125suL3_Od-208">
          <mxGeometry x="10" y="30" width="110" height="50" as="geometry" />
        </mxCell>
        <mxCell id="_fpL3KS8KS125suL3_Od-106" value="" style="group" vertex="1" connectable="0" parent="_fpL3KS8KS125suL3_Od-208">
          <mxGeometry x="135" width="110" height="50" as="geometry" />
        </mxCell>
        <mxCell id="_fpL3KS8KS125suL3_Od-107" value="&lt;b&gt;&lt;u&gt;Id&lt;/u&gt;&lt;/b&gt;" style="ellipse;whiteSpace=wrap;html=1;fillColor=#ffcd28;strokeColor=#d79b00;gradientColor=#ffa500;" vertex="1" parent="_fpL3KS8KS125suL3_Od-106">
          <mxGeometry width="110" height="50" as="geometry" />
        </mxCell>
        <mxCell id="_fpL3KS8KS125suL3_Od-110" value="" style="group" vertex="1" connectable="0" parent="_fpL3KS8KS125suL3_Od-208">
          <mxGeometry x="243" y="14" width="110" height="50" as="geometry" />
        </mxCell>
        <mxCell id="_fpL3KS8KS125suL3_Od-111" value="Customer Id" style="ellipse;whiteSpace=wrap;html=1;fillColor=#ffcd28;strokeColor=#d79b00;gradientColor=#ffa500;" vertex="1" parent="_fpL3KS8KS125suL3_Od-110">
          <mxGeometry width="110" height="50" as="geometry" />
        </mxCell>
        <mxCell id="_fpL3KS8KS125suL3_Od-113" value="" style="group" vertex="1" connectable="0" parent="_fpL3KS8KS125suL3_Od-208">
          <mxGeometry x="270" y="64" width="110" height="50" as="geometry" />
        </mxCell>
        <mxCell id="_fpL3KS8KS125suL3_Od-114" value="Table Id" style="ellipse;whiteSpace=wrap;html=1;fillColor=#ffcd28;strokeColor=#d79b00;gradientColor=#ffa500;" vertex="1" parent="_fpL3KS8KS125suL3_Od-113">
          <mxGeometry x="-2" width="110" height="50" as="geometry" />
        </mxCell>
        <mxCell id="_fpL3KS8KS125suL3_Od-115" value="" style="endArrow=none;html=1;rounded=0;exitX=0.5;exitY=1;exitDx=0;exitDy=0;" edge="1" parent="_fpL3KS8KS125suL3_Od-208" source="_fpL3KS8KS125suL3_Od-107" target="_fpL3KS8KS125suL3_Od-8">
          <mxGeometry width="50" height="50" relative="1" as="geometry">
            <mxPoint x="75" y="90" as="sourcePoint" />
            <mxPoint x="140" y="116" as="targetPoint" />
          </mxGeometry>
        </mxCell>
        <mxCell id="_fpL3KS8KS125suL3_Od-116" value="" style="endArrow=none;html=1;rounded=0;" edge="1" parent="_fpL3KS8KS125suL3_Od-208" source="_fpL3KS8KS125suL3_Od-111" target="_fpL3KS8KS125suL3_Od-8">
          <mxGeometry width="50" height="50" relative="1" as="geometry">
            <mxPoint x="85" y="100" as="sourcePoint" />
            <mxPoint x="150" y="126" as="targetPoint" />
          </mxGeometry>
        </mxCell>
        <mxCell id="_fpL3KS8KS125suL3_Od-117" value="" style="endArrow=none;html=1;rounded=0;" edge="1" parent="_fpL3KS8KS125suL3_Od-208" source="_fpL3KS8KS125suL3_Od-114" target="_fpL3KS8KS125suL3_Od-8">
          <mxGeometry width="50" height="50" relative="1" as="geometry">
            <mxPoint x="95" y="110" as="sourcePoint" />
            <mxPoint x="160" y="136" as="targetPoint" />
          </mxGeometry>
        </mxCell>
        <mxCell id="_fpL3KS8KS125suL3_Od-103" value="Created At" style="ellipse;whiteSpace=wrap;html=1;fillColor=#ffcd28;strokeColor=#d79b00;gradientColor=#ffa500;" vertex="1" parent="_fpL3KS8KS125suL3_Od-208">
          <mxGeometry x="-20" y="90" width="110" height="50" as="geometry" />
        </mxCell>
        <mxCell id="_fpL3KS8KS125suL3_Od-210" value="" style="group" vertex="1" connectable="0" parent="1">
          <mxGeometry x="590" y="370" width="430" height="270" as="geometry" />
        </mxCell>
        <mxCell id="_fpL3KS8KS125suL3_Od-1" value="&lt;b&gt;user&lt;/b&gt;" style="rounded=1;whiteSpace=wrap;html=1;fillColor=#1ba1e2;fontColor=#ffffff;strokeColor=#006EAF;" vertex="1" parent="_fpL3KS8KS125suL3_Od-210">
          <mxGeometry x="120" y="160" width="120" height="60" as="geometry" />
        </mxCell>
        <mxCell id="_fpL3KS8KS125suL3_Od-75" value="" style="group" vertex="1" connectable="0" parent="_fpL3KS8KS125suL3_Od-210">
          <mxGeometry x="270" y="133" width="110" height="50" as="geometry" />
        </mxCell>
        <mxCell id="_fpL3KS8KS125suL3_Od-76" value="Active" style="ellipse;whiteSpace=wrap;html=1;fillColor=#ffcd28;strokeColor=#d79b00;gradientColor=#ffa500;" vertex="1" parent="_fpL3KS8KS125suL3_Od-75">
          <mxGeometry width="110" height="50" as="geometry" />
        </mxCell>
        <mxCell id="_fpL3KS8KS125suL3_Od-77" value="" style="endArrow=none;html=1;rounded=0;" edge="1" parent="_fpL3KS8KS125suL3_Od-210" source="_fpL3KS8KS125suL3_Od-76" target="_fpL3KS8KS125suL3_Od-1">
          <mxGeometry width="50" height="50" relative="1" as="geometry">
            <mxPoint x="375" y="480" as="sourcePoint" />
            <mxPoint x="237" y="140" as="targetPoint" />
          </mxGeometry>
        </mxCell>
        <mxCell id="_fpL3KS8KS125suL3_Od-78" value="" style="endArrow=none;html=1;rounded=0;exitX=1;exitY=1;exitDx=0;exitDy=0;" edge="1" parent="_fpL3KS8KS125suL3_Od-210" source="_fpL3KS8KS125suL3_Od-79" target="_fpL3KS8KS125suL3_Od-1">
          <mxGeometry width="50" height="50" relative="1" as="geometry">
            <mxPoint x="465" y="300" as="sourcePoint" />
            <mxPoint x="163" y="140" as="targetPoint" />
          </mxGeometry>
        </mxCell>
        <mxCell id="_fpL3KS8KS125suL3_Od-79" value="Created At" style="ellipse;whiteSpace=wrap;html=1;fillColor=#ffcd28;strokeColor=#d79b00;gradientColor=#ffa500;" vertex="1" parent="_fpL3KS8KS125suL3_Od-210">
          <mxGeometry x="10" y="90" width="110" height="50" as="geometry" />
        </mxCell>
        <mxCell id="_fpL3KS8KS125suL3_Od-80" value="" style="endArrow=none;html=1;rounded=0;exitX=0.5;exitY=1;exitDx=0;exitDy=0;" edge="1" parent="_fpL3KS8KS125suL3_Od-210" source="_fpL3KS8KS125suL3_Od-81" target="_fpL3KS8KS125suL3_Od-1">
          <mxGeometry width="50" height="50" relative="1" as="geometry">
            <mxPoint x="200" y="40" as="sourcePoint" />
            <mxPoint x="217" y="140" as="targetPoint" />
          </mxGeometry>
        </mxCell>
        <mxCell id="_fpL3KS8KS125suL3_Od-81" value="Updated At" style="ellipse;whiteSpace=wrap;html=1;fillColor=#ffcd28;strokeColor=#d79b00;gradientColor=#ffa500;" vertex="1" parent="_fpL3KS8KS125suL3_Od-210">
          <mxGeometry x="250" y="40" width="110" height="50" as="geometry" />
        </mxCell>
        <mxCell id="_fpL3KS8KS125suL3_Od-82" value="" style="group" vertex="1" connectable="0" parent="_fpL3KS8KS125suL3_Od-210">
          <mxGeometry x="40" y="30" width="110" height="50" as="geometry" />
        </mxCell>
        <mxCell id="_fpL3KS8KS125suL3_Od-83" value="Name" style="ellipse;whiteSpace=wrap;html=1;fillColor=#ffcd28;strokeColor=#d79b00;gradientColor=#ffa500;" vertex="1" parent="_fpL3KS8KS125suL3_Od-82">
          <mxGeometry width="110" height="50" as="geometry" />
        </mxCell>
        <mxCell id="_fpL3KS8KS125suL3_Od-84" value="" style="endArrow=none;html=1;rounded=0;exitX=0.745;exitY=0.947;exitDx=0;exitDy=0;exitPerimeter=0;entryX=0.5;entryY=0;entryDx=0;entryDy=0;" edge="1" parent="_fpL3KS8KS125suL3_Od-210" source="_fpL3KS8KS125suL3_Od-83" target="_fpL3KS8KS125suL3_Od-1">
          <mxGeometry width="50" height="50" relative="1" as="geometry">
            <mxPoint x="450" y="280" as="sourcePoint" />
            <mxPoint x="170" y="140" as="targetPoint" />
          </mxGeometry>
        </mxCell>
        <mxCell id="_fpL3KS8KS125suL3_Od-85" value="" style="endArrow=none;html=1;rounded=0;" edge="1" parent="_fpL3KS8KS125suL3_Od-210" source="_fpL3KS8KS125suL3_Od-87" target="_fpL3KS8KS125suL3_Od-1">
          <mxGeometry width="50" height="50" relative="1" as="geometry">
            <mxPoint x="195" y="90" as="sourcePoint" />
            <mxPoint x="180" y="140" as="targetPoint" />
          </mxGeometry>
        </mxCell>
        <mxCell id="_fpL3KS8KS125suL3_Od-86" value="" style="group" vertex="1" connectable="0" parent="_fpL3KS8KS125suL3_Od-210">
          <mxGeometry x="180" y="80" width="80" height="50" as="geometry" />
        </mxCell>
        <mxCell id="_fpL3KS8KS125suL3_Od-87" value="&lt;b&gt;&lt;u&gt;Id&lt;/u&gt;&lt;/b&gt;" style="ellipse;whiteSpace=wrap;html=1;fillColor=#ffcd28;strokeColor=#d79b00;gradientColor=#ffa500;" vertex="1" parent="_fpL3KS8KS125suL3_Od-86">
          <mxGeometry width="80" height="50" as="geometry" />
        </mxCell>
        <mxCell id="_fpL3KS8KS125suL3_Od-89" value="" style="endArrow=none;html=1;rounded=0;exitX=1;exitY=1;exitDx=0;exitDy=0;" edge="1" parent="_fpL3KS8KS125suL3_Od-210" source="_fpL3KS8KS125suL3_Od-90" target="_fpL3KS8KS125suL3_Od-1">
          <mxGeometry width="50" height="50" relative="1" as="geometry">
            <mxPoint x="475" y="310" as="sourcePoint" />
            <mxPoint x="150" y="170" as="targetPoint" />
          </mxGeometry>
        </mxCell>
        <mxCell id="_fpL3KS8KS125suL3_Od-90" value="Email" style="ellipse;whiteSpace=wrap;html=1;fillColor=#ffcd28;strokeColor=#d79b00;gradientColor=#ffa500;" vertex="1" parent="_fpL3KS8KS125suL3_Od-210">
          <mxGeometry y="165" width="110" height="50" as="geometry" />
        </mxCell>
        <mxCell id="_fpL3KS8KS125suL3_Od-91" value="" style="endArrow=none;html=1;rounded=0;exitX=1;exitY=1;exitDx=0;exitDy=0;" edge="1" parent="_fpL3KS8KS125suL3_Od-210" source="_fpL3KS8KS125suL3_Od-92" target="_fpL3KS8KS125suL3_Od-1">
          <mxGeometry width="50" height="50" relative="1" as="geometry">
            <mxPoint x="485" y="430" as="sourcePoint" />
            <mxPoint x="160" y="290" as="targetPoint" />
          </mxGeometry>
        </mxCell>
        <mxCell id="_fpL3KS8KS125suL3_Od-92" value="Password" style="ellipse;whiteSpace=wrap;html=1;fillColor=#ffcd28;strokeColor=#d79b00;gradientColor=#ffa500;" vertex="1" parent="_fpL3KS8KS125suL3_Od-210">
          <mxGeometry x="30" y="220" width="110" height="50" as="geometry" />
        </mxCell>
        <mxCell id="_fpL3KS8KS125suL3_Od-93" value="" style="endArrow=none;html=1;rounded=0;exitX=1;exitY=1;exitDx=0;exitDy=0;" edge="1" parent="_fpL3KS8KS125suL3_Od-210" source="_fpL3KS8KS125suL3_Od-94" target="_fpL3KS8KS125suL3_Od-1">
          <mxGeometry width="50" height="50" relative="1" as="geometry">
            <mxPoint x="705" y="375" as="sourcePoint" />
            <mxPoint x="380" y="235" as="targetPoint" />
          </mxGeometry>
        </mxCell>
        <mxCell id="_fpL3KS8KS125suL3_Od-94" value="Address" style="ellipse;whiteSpace=wrap;html=1;fillColor=#ffcd28;strokeColor=#d79b00;gradientColor=#ffa500;" vertex="1" parent="_fpL3KS8KS125suL3_Od-210">
          <mxGeometry x="270" y="200" width="110" height="50" as="geometry" />
        </mxCell>
        <mxCell id="_fpL3KS8KS125suL3_Od-95" value="" style="endArrow=none;html=1;rounded=0;" edge="1" parent="_fpL3KS8KS125suL3_Od-210" target="_fpL3KS8KS125suL3_Od-1">
          <mxGeometry width="50" height="50" relative="1" as="geometry">
            <mxPoint x="170" y="40" as="sourcePoint" />
            <mxPoint x="265" y="70" as="targetPoint" />
          </mxGeometry>
        </mxCell>
        <mxCell id="_fpL3KS8KS125suL3_Od-96" value="Contact" style="ellipse;whiteSpace=wrap;html=1;fillColor=#ffcd28;strokeColor=#d79b00;gradientColor=#ffa500;" vertex="1" parent="_fpL3KS8KS125suL3_Od-210">
          <mxGeometry x="135" width="110" height="50" as="geometry" />
        </mxCell>
        <mxCell id="_fpL3KS8KS125suL3_Od-97" value="" style="endArrow=none;html=1;rounded=0;exitX=0;exitY=0.5;exitDx=0;exitDy=0;" edge="1" parent="_fpL3KS8KS125suL3_Od-210" source="_fpL3KS8KS125suL3_Od-98" target="_fpL3KS8KS125suL3_Od-1">
          <mxGeometry width="50" height="50" relative="1" as="geometry">
            <mxPoint x="815" y="270" as="sourcePoint" />
            <mxPoint x="490" y="130" as="targetPoint" />
          </mxGeometry>
        </mxCell>
        <mxCell id="_fpL3KS8KS125suL3_Od-98" value="Role" style="ellipse;whiteSpace=wrap;html=1;fillColor=#ffcd28;strokeColor=#d79b00;gradientColor=#ffa500;" vertex="1" parent="_fpL3KS8KS125suL3_Od-210">
          <mxGeometry x="340" y="80" width="90" height="50" as="geometry" />
        </mxCell>
        <mxCell id="_fpL3KS8KS125suL3_Od-211" value="" style="group" vertex="1" connectable="0" parent="1">
          <mxGeometry x="70" y="489" width="390" height="250" as="geometry" />
        </mxCell>
        <mxCell id="_fpL3KS8KS125suL3_Od-6" value="&lt;b&gt;deals&lt;/b&gt;" style="rounded=1;whiteSpace=wrap;html=1;fillColor=#1ba1e2;fontColor=#ffffff;strokeColor=#006EAF;" vertex="1" parent="_fpL3KS8KS125suL3_Od-211">
          <mxGeometry x="130" y="150" width="120" height="60" as="geometry" />
        </mxCell>
        <mxCell id="_fpL3KS8KS125suL3_Od-39" value="" style="group" vertex="1" connectable="0" parent="_fpL3KS8KS125suL3_Od-211">
          <mxGeometry y="200" width="110" height="50" as="geometry" />
        </mxCell>
        <mxCell id="_fpL3KS8KS125suL3_Od-40" value="Active" style="ellipse;whiteSpace=wrap;html=1;fillColor=#ffcd28;strokeColor=#d79b00;gradientColor=#ffa500;" vertex="1" parent="_fpL3KS8KS125suL3_Od-39">
          <mxGeometry width="110" height="50" as="geometry" />
        </mxCell>
        <mxCell id="_fpL3KS8KS125suL3_Od-41" value="" style="endArrow=none;html=1;rounded=0;" edge="1" parent="_fpL3KS8KS125suL3_Od-211" source="_fpL3KS8KS125suL3_Od-40" target="_fpL3KS8KS125suL3_Od-6">
          <mxGeometry width="50" height="50" relative="1" as="geometry">
            <mxPoint x="415" y="490" as="sourcePoint" />
            <mxPoint x="125" y="195" as="targetPoint" />
          </mxGeometry>
        </mxCell>
        <mxCell id="_fpL3KS8KS125suL3_Od-42" value="" style="endArrow=none;html=1;rounded=0;" edge="1" parent="_fpL3KS8KS125suL3_Od-211" source="_fpL3KS8KS125suL3_Od-43" target="_fpL3KS8KS125suL3_Od-6">
          <mxGeometry width="50" height="50" relative="1" as="geometry">
            <mxPoint x="505" y="310" as="sourcePoint" />
            <mxPoint x="155" y="150" as="targetPoint" />
          </mxGeometry>
        </mxCell>
        <mxCell id="_fpL3KS8KS125suL3_Od-43" value="Created At" style="ellipse;whiteSpace=wrap;html=1;fillColor=#ffcd28;strokeColor=#d79b00;gradientColor=#ffa500;" vertex="1" parent="_fpL3KS8KS125suL3_Od-211">
          <mxGeometry x="-30" y="145" width="110" height="50" as="geometry" />
        </mxCell>
        <mxCell id="_fpL3KS8KS125suL3_Od-44" value="" style="endArrow=none;html=1;rounded=0;exitX=0.5;exitY=1;exitDx=0;exitDy=0;" edge="1" parent="_fpL3KS8KS125suL3_Od-211" source="_fpL3KS8KS125suL3_Od-45" target="_fpL3KS8KS125suL3_Od-6">
          <mxGeometry width="50" height="50" relative="1" as="geometry">
            <mxPoint x="240" y="50" as="sourcePoint" />
            <mxPoint x="197" y="150" as="targetPoint" />
          </mxGeometry>
        </mxCell>
        <mxCell id="_fpL3KS8KS125suL3_Od-45" value="Updated At" style="ellipse;whiteSpace=wrap;html=1;fillColor=#ffcd28;strokeColor=#d79b00;gradientColor=#ffa500;" vertex="1" parent="_fpL3KS8KS125suL3_Od-211">
          <mxGeometry x="-20" y="75" width="110" height="55" as="geometry" />
        </mxCell>
        <mxCell id="_fpL3KS8KS125suL3_Od-46" value="" style="group" vertex="1" connectable="0" parent="_fpL3KS8KS125suL3_Od-211">
          <mxGeometry y="10" width="110" height="50" as="geometry" />
        </mxCell>
        <mxCell id="_fpL3KS8KS125suL3_Od-47" value="Name" style="ellipse;whiteSpace=wrap;html=1;fillColor=#ffcd28;strokeColor=#d79b00;gradientColor=#ffa500;" vertex="1" parent="_fpL3KS8KS125suL3_Od-46">
          <mxGeometry width="110" height="50" as="geometry" />
        </mxCell>
        <mxCell id="_fpL3KS8KS125suL3_Od-48" value="" style="group" vertex="1" connectable="0" parent="_fpL3KS8KS125suL3_Od-211">
          <mxGeometry x="135" y="50" width="115" height="55" as="geometry" />
        </mxCell>
        <mxCell id="_fpL3KS8KS125suL3_Od-49" value="&lt;b&gt;&lt;u&gt;Id&lt;/u&gt;&lt;/b&gt;" style="ellipse;whiteSpace=wrap;html=1;fillColor=#ffcd28;strokeColor=#d79b00;gradientColor=#ffa500;" vertex="1" parent="_fpL3KS8KS125suL3_Od-48">
          <mxGeometry x="30" y="5" width="85" height="50" as="geometry" />
        </mxCell>
        <mxCell id="_fpL3KS8KS125suL3_Od-50" value="" style="endArrow=none;html=1;rounded=0;entryX=0.75;entryY=0;entryDx=0;entryDy=0;" edge="1" parent="_fpL3KS8KS125suL3_Od-211" target="_fpL3KS8KS125suL3_Od-6">
          <mxGeometry width="50" height="50" relative="1" as="geometry">
            <mxPoint x="285" y="50" as="sourcePoint" />
            <mxPoint x="319" y="70" as="targetPoint" />
          </mxGeometry>
        </mxCell>
        <mxCell id="_fpL3KS8KS125suL3_Od-51" value="Price" style="ellipse;whiteSpace=wrap;html=1;fillColor=#ffcd28;strokeColor=#d79b00;gradientColor=#ffa500;" vertex="1" parent="_fpL3KS8KS125suL3_Od-211">
          <mxGeometry x="230" width="110" height="50" as="geometry" />
        </mxCell>
        <mxCell id="_fpL3KS8KS125suL3_Od-52" value="" style="endArrow=none;html=1;rounded=0;exitX=0.745;exitY=0.947;exitDx=0;exitDy=0;exitPerimeter=0;entryX=0.105;entryY=-0.041;entryDx=0;entryDy=0;entryPerimeter=0;" edge="1" parent="_fpL3KS8KS125suL3_Od-211" source="_fpL3KS8KS125suL3_Od-47" target="_fpL3KS8KS125suL3_Od-6">
          <mxGeometry width="50" height="50" relative="1" as="geometry">
            <mxPoint x="490" y="290" as="sourcePoint" />
            <mxPoint x="260" y="100" as="targetPoint" />
          </mxGeometry>
        </mxCell>
        <mxCell id="_fpL3KS8KS125suL3_Od-53" value="" style="endArrow=none;html=1;rounded=0;exitX=0.5;exitY=1;exitDx=0;exitDy=0;" edge="1" parent="_fpL3KS8KS125suL3_Od-211" source="_fpL3KS8KS125suL3_Od-49" target="_fpL3KS8KS125suL3_Od-6">
          <mxGeometry width="50" height="50" relative="1" as="geometry">
            <mxPoint x="500" y="350" as="sourcePoint" />
            <mxPoint x="260" y="101" as="targetPoint" />
          </mxGeometry>
        </mxCell>
        <mxCell id="_fpL3KS8KS125suL3_Od-54" value="" style="endArrow=none;html=1;rounded=0;" edge="1" parent="_fpL3KS8KS125suL3_Od-211" target="_fpL3KS8KS125suL3_Od-6">
          <mxGeometry width="50" height="50" relative="1" as="geometry">
            <mxPoint x="335" y="110" as="sourcePoint" />
            <mxPoint x="270" y="210" as="targetPoint" />
          </mxGeometry>
        </mxCell>
        <mxCell id="_fpL3KS8KS125suL3_Od-55" value="Menu Item Id" style="ellipse;whiteSpace=wrap;html=1;fillColor=#ffcd28;strokeColor=#d79b00;gradientColor=#ffa500;" vertex="1" parent="_fpL3KS8KS125suL3_Od-211">
          <mxGeometry x="280" y="60" width="110" height="50" as="geometry" />
        </mxCell>
        <mxCell id="_fpL3KS8KS125suL3_Od-212" value="" style="group" vertex="1" connectable="0" parent="1">
          <mxGeometry x="90" y="120" width="530" height="260" as="geometry" />
        </mxCell>
        <mxCell id="_fpL3KS8KS125suL3_Od-15" value="" style="group" vertex="1" connectable="0" parent="_fpL3KS8KS125suL3_Od-212">
          <mxGeometry x="90" y="60" width="110" height="50" as="geometry" />
        </mxCell>
        <mxCell id="_fpL3KS8KS125suL3_Od-13" value="CategoryId" style="ellipse;whiteSpace=wrap;html=1;fillColor=#ffcd28;strokeColor=#d79b00;gradientColor=#ffa500;" vertex="1" parent="_fpL3KS8KS125suL3_Od-15">
          <mxGeometry width="110" height="50" as="geometry" />
        </mxCell>
        <mxCell id="_fpL3KS8KS125suL3_Od-16" value="" style="group" vertex="1" connectable="0" parent="_fpL3KS8KS125suL3_Od-212">
          <mxGeometry y="90" width="110" height="50" as="geometry" />
        </mxCell>
        <mxCell id="_fpL3KS8KS125suL3_Od-17" value="Name" style="ellipse;whiteSpace=wrap;html=1;fillColor=#ffcd28;strokeColor=#d79b00;gradientColor=#ffa500;" vertex="1" parent="_fpL3KS8KS125suL3_Od-16">
          <mxGeometry width="110" height="50" as="geometry" />
        </mxCell>
        <mxCell id="_fpL3KS8KS125suL3_Od-19" value="" style="group" vertex="1" connectable="0" parent="_fpL3KS8KS125suL3_Od-212">
          <mxGeometry x="40" y="150" width="110" height="50" as="geometry" />
        </mxCell>
        <mxCell id="_fpL3KS8KS125suL3_Od-20" value="&lt;u&gt;&lt;b&gt;Id&lt;/b&gt;&lt;/u&gt;" style="ellipse;whiteSpace=wrap;html=1;fillColor=#ffcd28;strokeColor=#d79b00;gradientColor=#ffa500;" vertex="1" parent="_fpL3KS8KS125suL3_Od-19">
          <mxGeometry width="110" height="50" as="geometry" />
        </mxCell>
        <mxCell id="_fpL3KS8KS125suL3_Od-25" value="" style="group" vertex="1" connectable="0" parent="_fpL3KS8KS125suL3_Od-212">
          <mxGeometry x="360" y="50" width="110" height="50" as="geometry" />
        </mxCell>
        <mxCell id="_fpL3KS8KS125suL3_Od-26" value="Size" style="ellipse;whiteSpace=wrap;html=1;fillColor=#ffcd28;strokeColor=#d79b00;gradientColor=#ffa500;" vertex="1" parent="_fpL3KS8KS125suL3_Od-25">
          <mxGeometry width="110" height="50" as="geometry" />
        </mxCell>
        <mxCell id="_fpL3KS8KS125suL3_Od-27" value="" style="endArrow=none;html=1;rounded=0;exitX=0;exitY=1;exitDx=0;exitDy=0;entryX=0.75;entryY=0;entryDx=0;entryDy=0;" edge="1" parent="_fpL3KS8KS125suL3_Od-212" source="_fpL3KS8KS125suL3_Od-26" target="_fpL3KS8KS125suL3_Od-5">
          <mxGeometry width="50" height="50" relative="1" as="geometry">
            <mxPoint x="820" y="360" as="sourcePoint" />
            <mxPoint x="870" y="310" as="targetPoint" />
          </mxGeometry>
        </mxCell>
        <mxCell id="_fpL3KS8KS125suL3_Od-23" value="Price" style="ellipse;whiteSpace=wrap;html=1;fillColor=#ffcd28;strokeColor=#d79b00;gradientColor=#ffa500;" vertex="1" parent="_fpL3KS8KS125suL3_Od-212">
          <mxGeometry x="250" y="50" width="90" height="50" as="geometry" />
        </mxCell>
        <mxCell id="_fpL3KS8KS125suL3_Od-28" value="" style="group" vertex="1" connectable="0" parent="_fpL3KS8KS125suL3_Od-212">
          <mxGeometry x="420" y="100" width="110" height="50" as="geometry" />
        </mxCell>
        <mxCell id="_fpL3KS8KS125suL3_Od-29" value="Image" style="ellipse;whiteSpace=wrap;html=1;fillColor=#ffcd28;strokeColor=#d79b00;gradientColor=#ffa500;" vertex="1" parent="_fpL3KS8KS125suL3_Od-28">
          <mxGeometry x="-10" width="110" height="50" as="geometry" />
        </mxCell>
        <mxCell id="_fpL3KS8KS125suL3_Od-18" value="" style="endArrow=none;html=1;rounded=0;exitX=1;exitY=1;exitDx=0;exitDy=0;entryX=0;entryY=0.5;entryDx=0;entryDy=0;" edge="1" parent="_fpL3KS8KS125suL3_Od-212" source="_fpL3KS8KS125suL3_Od-17" target="_fpL3KS8KS125suL3_Od-5">
          <mxGeometry width="50" height="50" relative="1" as="geometry">
            <mxPoint x="470" y="380" as="sourcePoint" />
            <mxPoint x="520" y="330" as="targetPoint" />
          </mxGeometry>
        </mxCell>
        <mxCell id="_fpL3KS8KS125suL3_Od-21" value="" style="endArrow=none;html=1;rounded=0;exitX=1;exitY=1;exitDx=0;exitDy=0;" edge="1" parent="_fpL3KS8KS125suL3_Od-212" source="_fpL3KS8KS125suL3_Od-20" target="_fpL3KS8KS125suL3_Od-5">
          <mxGeometry width="50" height="50" relative="1" as="geometry">
            <mxPoint x="480" y="440" as="sourcePoint" />
            <mxPoint x="530" y="390" as="targetPoint" />
          </mxGeometry>
        </mxCell>
        <mxCell id="_fpL3KS8KS125suL3_Od-32" value="" style="group" vertex="1" connectable="0" parent="_fpL3KS8KS125suL3_Od-212">
          <mxGeometry x="60" y="210" width="110" height="50" as="geometry" />
        </mxCell>
        <mxCell id="_fpL3KS8KS125suL3_Od-33" value="Active" style="ellipse;whiteSpace=wrap;html=1;fillColor=#ffcd28;strokeColor=#d79b00;gradientColor=#ffa500;" vertex="1" parent="_fpL3KS8KS125suL3_Od-32">
          <mxGeometry width="110" height="50" as="geometry" />
        </mxCell>
        <mxCell id="_fpL3KS8KS125suL3_Od-36" value="Created At" style="ellipse;whiteSpace=wrap;html=1;fillColor=#ffcd28;strokeColor=#d79b00;gradientColor=#ffa500;" vertex="1" parent="_fpL3KS8KS125suL3_Od-212">
          <mxGeometry x="150" y="10" width="110" height="50" as="geometry" />
        </mxCell>
        <mxCell id="_fpL3KS8KS125suL3_Od-38" value="Updated At" style="ellipse;whiteSpace=wrap;html=1;fillColor=#ffcd28;strokeColor=#d79b00;gradientColor=#ffa500;" vertex="1" parent="_fpL3KS8KS125suL3_Od-212">
          <mxGeometry x="300" width="110" height="50" as="geometry" />
        </mxCell>
        <mxCell id="_fpL3KS8KS125suL3_Od-14" value="" style="endArrow=none;html=1;rounded=0;exitX=1;exitY=1;exitDx=0;exitDy=0;" edge="1" parent="1" source="_fpL3KS8KS125suL3_Od-13" target="_fpL3KS8KS125suL3_Od-5">
          <mxGeometry width="50" height="50" relative="1" as="geometry">
            <mxPoint x="670" y="470" as="sourcePoint" />
            <mxPoint x="720" y="420" as="targetPoint" />
          </mxGeometry>
        </mxCell>
        <mxCell id="_fpL3KS8KS125suL3_Od-24" value="" style="endArrow=none;html=1;rounded=0;exitX=0.606;exitY=1.053;exitDx=0;exitDy=0;exitPerimeter=0;" edge="1" parent="1" source="_fpL3KS8KS125suL3_Od-23" target="_fpL3KS8KS125suL3_Od-5">
          <mxGeometry width="50" height="50" relative="1" as="geometry">
            <mxPoint x="700" y="360" as="sourcePoint" />
            <mxPoint x="750" y="310" as="targetPoint" />
          </mxGeometry>
        </mxCell>
        <mxCell id="_fpL3KS8KS125suL3_Od-30" value="" style="endArrow=none;html=1;rounded=0;entryX=1;entryY=0.5;entryDx=0;entryDy=0;" edge="1" parent="1" source="_fpL3KS8KS125suL3_Od-29" target="_fpL3KS8KS125suL3_Od-5">
          <mxGeometry width="50" height="50" relative="1" as="geometry">
            <mxPoint x="420" y="165" as="sourcePoint" />
            <mxPoint x="370" y="190" as="targetPoint" />
          </mxGeometry>
        </mxCell>
        <mxCell id="_fpL3KS8KS125suL3_Od-35" value="" style="endArrow=none;html=1;rounded=0;entryX=0.25;entryY=0;entryDx=0;entryDy=0;" edge="1" parent="1" source="_fpL3KS8KS125suL3_Od-36" target="_fpL3KS8KS125suL3_Od-5">
          <mxGeometry width="50" height="50" relative="1" as="geometry">
            <mxPoint x="620" y="320" as="sourcePoint" />
            <mxPoint x="219" y="120" as="targetPoint" />
          </mxGeometry>
        </mxCell>
        <mxCell id="_fpL3KS8KS125suL3_Od-37" value="" style="endArrow=none;html=1;rounded=0;exitX=0.5;exitY=1;exitDx=0;exitDy=0;" edge="1" parent="1" source="_fpL3KS8KS125suL3_Od-38" target="_fpL3KS8KS125suL3_Od-5">
          <mxGeometry width="50" height="50" relative="1" as="geometry">
            <mxPoint x="355" y="60" as="sourcePoint" />
            <mxPoint x="369" y="110" as="targetPoint" />
          </mxGeometry>
        </mxCell>
        <mxCell id="_fpL3KS8KS125suL3_Od-213" value="" style="group" vertex="1" connectable="0" parent="1">
          <mxGeometry x="680" y="10" width="423" height="230" as="geometry" />
        </mxCell>
        <mxCell id="_fpL3KS8KS125suL3_Od-4" value="&lt;b&gt;categories&lt;/b&gt;" style="rounded=1;whiteSpace=wrap;html=1;fillColor=#1ba1e2;fontColor=#ffffff;strokeColor=#006EAF;" vertex="1" parent="_fpL3KS8KS125suL3_Od-213">
          <mxGeometry x="130" y="170" width="120" height="60" as="geometry" />
        </mxCell>
        <mxCell id="_fpL3KS8KS125suL3_Od-56" value="" style="group" vertex="1" connectable="0" parent="_fpL3KS8KS125suL3_Od-213">
          <mxGeometry x="290" y="50" width="110" height="50" as="geometry" />
        </mxCell>
        <mxCell id="_fpL3KS8KS125suL3_Od-57" value="Active" style="ellipse;whiteSpace=wrap;html=1;fillColor=#ffcd28;strokeColor=#d79b00;gradientColor=#ffa500;" vertex="1" parent="_fpL3KS8KS125suL3_Od-56">
          <mxGeometry width="110" height="50" as="geometry" />
        </mxCell>
        <mxCell id="_fpL3KS8KS125suL3_Od-58" value="" style="endArrow=none;html=1;rounded=0;" edge="1" parent="_fpL3KS8KS125suL3_Od-213" source="_fpL3KS8KS125suL3_Od-57" target="_fpL3KS8KS125suL3_Od-4">
          <mxGeometry width="50" height="50" relative="1" as="geometry">
            <mxPoint x="365" y="510" as="sourcePoint" />
            <mxPoint x="80" y="220" as="targetPoint" />
          </mxGeometry>
        </mxCell>
        <mxCell id="_fpL3KS8KS125suL3_Od-59" value="" style="endArrow=none;html=1;rounded=0;exitX=1;exitY=1;exitDx=0;exitDy=0;" edge="1" parent="_fpL3KS8KS125suL3_Od-213" source="_fpL3KS8KS125suL3_Od-60" target="_fpL3KS8KS125suL3_Od-4">
          <mxGeometry width="50" height="50" relative="1" as="geometry">
            <mxPoint x="455" y="330" as="sourcePoint" />
            <mxPoint x="80" y="206" as="targetPoint" />
          </mxGeometry>
        </mxCell>
        <mxCell id="_fpL3KS8KS125suL3_Od-60" value="Created At" style="ellipse;whiteSpace=wrap;html=1;fillColor=#ffcd28;strokeColor=#d79b00;gradientColor=#ffa500;" vertex="1" parent="_fpL3KS8KS125suL3_Od-213">
          <mxGeometry y="80" width="110" height="50" as="geometry" />
        </mxCell>
        <mxCell id="_fpL3KS8KS125suL3_Od-61" value="" style="endArrow=none;html=1;rounded=0;exitX=0.5;exitY=1;exitDx=0;exitDy=0;" edge="1" parent="_fpL3KS8KS125suL3_Od-213" source="_fpL3KS8KS125suL3_Od-62" target="_fpL3KS8KS125suL3_Od-4">
          <mxGeometry width="50" height="50" relative="1" as="geometry">
            <mxPoint x="190" y="70" as="sourcePoint" />
            <mxPoint x="80" y="176" as="targetPoint" />
          </mxGeometry>
        </mxCell>
        <mxCell id="_fpL3KS8KS125suL3_Od-62" value="Updated At" style="ellipse;whiteSpace=wrap;html=1;fillColor=#ffcd28;strokeColor=#d79b00;gradientColor=#ffa500;" vertex="1" parent="_fpL3KS8KS125suL3_Od-213">
          <mxGeometry x="220" width="110" height="50" as="geometry" />
        </mxCell>
        <mxCell id="_fpL3KS8KS125suL3_Od-63" value="" style="group" vertex="1" connectable="0" parent="_fpL3KS8KS125suL3_Od-213">
          <mxGeometry x="30" y="20" width="110" height="50" as="geometry" />
        </mxCell>
        <mxCell id="_fpL3KS8KS125suL3_Od-64" value="Name" style="ellipse;whiteSpace=wrap;html=1;fillColor=#ffcd28;strokeColor=#d79b00;gradientColor=#ffa500;" vertex="1" parent="_fpL3KS8KS125suL3_Od-63">
          <mxGeometry width="110" height="50" as="geometry" />
        </mxCell>
        <mxCell id="_fpL3KS8KS125suL3_Od-65" value="" style="group" vertex="1" connectable="0" parent="_fpL3KS8KS125suL3_Od-213">
          <mxGeometry x="130" y="70" width="110" height="50" as="geometry" />
        </mxCell>
        <mxCell id="_fpL3KS8KS125suL3_Od-66" value="&lt;b&gt;&lt;u&gt;Id&lt;/u&gt;&lt;/b&gt;" style="ellipse;whiteSpace=wrap;html=1;fillColor=#ffcd28;strokeColor=#d79b00;gradientColor=#ffa500;" vertex="1" parent="_fpL3KS8KS125suL3_Od-65">
          <mxGeometry width="110" height="50" as="geometry" />
        </mxCell>
        <mxCell id="_fpL3KS8KS125suL3_Od-67" value="" style="endArrow=none;html=1;rounded=0;exitX=0.745;exitY=0.947;exitDx=0;exitDy=0;exitPerimeter=0;entryX=0.25;entryY=0;entryDx=0;entryDy=0;" edge="1" parent="_fpL3KS8KS125suL3_Od-213" source="_fpL3KS8KS125suL3_Od-64" target="_fpL3KS8KS125suL3_Od-4">
          <mxGeometry width="50" height="50" relative="1" as="geometry">
            <mxPoint x="440" y="310" as="sourcePoint" />
            <mxPoint x="120" y="170" as="targetPoint" />
          </mxGeometry>
        </mxCell>
        <mxCell id="_fpL3KS8KS125suL3_Od-68" value="" style="endArrow=none;html=1;rounded=0;exitX=0.5;exitY=1;exitDx=0;exitDy=0;" edge="1" parent="_fpL3KS8KS125suL3_Od-213" source="_fpL3KS8KS125suL3_Od-66">
          <mxGeometry width="50" height="50" relative="1" as="geometry">
            <mxPoint x="450" y="370" as="sourcePoint" />
            <mxPoint x="170" y="170" as="targetPoint" />
          </mxGeometry>
        </mxCell>
        <mxCell id="_fpL3KS8KS125suL3_Od-72" value="" style="group" vertex="1" connectable="0" parent="_fpL3KS8KS125suL3_Od-213">
          <mxGeometry x="313" y="120" width="110" height="50" as="geometry" />
        </mxCell>
        <mxCell id="_fpL3KS8KS125suL3_Od-73" value="Type" style="ellipse;whiteSpace=wrap;html=1;fillColor=#ffcd28;strokeColor=#d79b00;gradientColor=#ffa500;" vertex="1" parent="_fpL3KS8KS125suL3_Od-72">
          <mxGeometry width="110" height="50" as="geometry" />
        </mxCell>
        <mxCell id="_fpL3KS8KS125suL3_Od-74" value="" style="endArrow=none;html=1;rounded=0;" edge="1" parent="_fpL3KS8KS125suL3_Od-213" source="_fpL3KS8KS125suL3_Od-73">
          <mxGeometry width="50" height="50" relative="1" as="geometry">
            <mxPoint x="388" y="550" as="sourcePoint" />
            <mxPoint x="250" y="210" as="targetPoint" />
          </mxGeometry>
        </mxCell>
        <mxCell id="_fpL3KS8KS125suL3_Od-217" value="" style="group" vertex="1" connectable="0" parent="1">
          <mxGeometry x="1108" y="84" width="459" height="376" as="geometry" />
        </mxCell>
        <mxCell id="_fpL3KS8KS125suL3_Od-141" value="Created At" style="ellipse;whiteSpace=wrap;html=1;fillColor=#ffcd28;strokeColor=#d79b00;gradientColor=#ffa500;" vertex="1" parent="_fpL3KS8KS125suL3_Od-217">
          <mxGeometry y="180" width="110" height="50" as="geometry" />
        </mxCell>
        <mxCell id="_fpL3KS8KS125suL3_Od-153" value="" style="group" vertex="1" connectable="0" parent="_fpL3KS8KS125suL3_Od-217">
          <mxGeometry x="127" y="276" width="110" height="50" as="geometry" />
        </mxCell>
        <mxCell id="_fpL3KS8KS125suL3_Od-154" value="Status" style="ellipse;whiteSpace=wrap;html=1;fillColor=#ffcd28;strokeColor=#d79b00;gradientColor=#ffa500;" vertex="1" parent="_fpL3KS8KS125suL3_Od-153">
          <mxGeometry x="-2" width="110" height="50" as="geometry" />
        </mxCell>
        <mxCell id="_fpL3KS8KS125suL3_Od-136" value="&lt;b&gt;orders&lt;/b&gt;" style="rounded=1;whiteSpace=wrap;html=1;fillColor=#1ba1e2;fontColor=#ffffff;strokeColor=#006EAF;" vertex="1" parent="_fpL3KS8KS125suL3_Od-217">
          <mxGeometry x="197" y="175" width="120" height="60" as="geometry" />
        </mxCell>
        <mxCell id="_fpL3KS8KS125suL3_Od-137" value="" style="group" vertex="1" connectable="0" parent="_fpL3KS8KS125suL3_Od-217">
          <mxGeometry x="67" y="225" width="110" height="50" as="geometry" />
        </mxCell>
        <mxCell id="_fpL3KS8KS125suL3_Od-138" value="Active" style="ellipse;whiteSpace=wrap;html=1;fillColor=#ffcd28;strokeColor=#d79b00;gradientColor=#ffa500;" vertex="1" parent="_fpL3KS8KS125suL3_Od-137">
          <mxGeometry width="110" height="50" as="geometry" />
        </mxCell>
        <mxCell id="_fpL3KS8KS125suL3_Od-139" value="" style="endArrow=none;html=1;rounded=0;" edge="1" parent="_fpL3KS8KS125suL3_Od-217" source="_fpL3KS8KS125suL3_Od-138">
          <mxGeometry width="50" height="50" relative="1" as="geometry">
            <mxPoint x="482" y="515" as="sourcePoint" />
            <mxPoint x="197" y="225" as="targetPoint" />
          </mxGeometry>
        </mxCell>
        <mxCell id="_fpL3KS8KS125suL3_Od-140" value="" style="endArrow=none;html=1;rounded=0;" edge="1" parent="_fpL3KS8KS125suL3_Od-217" source="_fpL3KS8KS125suL3_Od-141">
          <mxGeometry width="50" height="50" relative="1" as="geometry">
            <mxPoint x="572" y="335" as="sourcePoint" />
            <mxPoint x="197" y="198" as="targetPoint" />
          </mxGeometry>
        </mxCell>
        <mxCell id="_fpL3KS8KS125suL3_Od-142" value="" style="endArrow=none;html=1;rounded=0;exitX=0.5;exitY=1;exitDx=0;exitDy=0;" edge="1" parent="_fpL3KS8KS125suL3_Od-217" source="_fpL3KS8KS125suL3_Od-143">
          <mxGeometry width="50" height="50" relative="1" as="geometry">
            <mxPoint x="307" y="75" as="sourcePoint" />
            <mxPoint x="197" y="181" as="targetPoint" />
          </mxGeometry>
        </mxCell>
        <mxCell id="_fpL3KS8KS125suL3_Od-143" value="Updated At" style="ellipse;whiteSpace=wrap;html=1;fillColor=#ffcd28;strokeColor=#d79b00;gradientColor=#ffa500;" vertex="1" parent="_fpL3KS8KS125suL3_Od-217">
          <mxGeometry x="77" y="105" width="110" height="50" as="geometry" />
        </mxCell>
        <mxCell id="_fpL3KS8KS125suL3_Od-144" value="" style="group" vertex="1" connectable="0" parent="_fpL3KS8KS125suL3_Od-217">
          <mxGeometry x="202" y="75" width="110" height="50" as="geometry" />
        </mxCell>
        <mxCell id="_fpL3KS8KS125suL3_Od-145" value="&lt;b&gt;&lt;u&gt;Id&lt;/u&gt;&lt;/b&gt;" style="ellipse;whiteSpace=wrap;html=1;fillColor=#ffcd28;strokeColor=#d79b00;gradientColor=#ffa500;" vertex="1" parent="_fpL3KS8KS125suL3_Od-144">
          <mxGeometry width="110" height="50" as="geometry" />
        </mxCell>
        <mxCell id="_fpL3KS8KS125suL3_Od-146" value="" style="group" vertex="1" connectable="0" parent="_fpL3KS8KS125suL3_Od-217">
          <mxGeometry x="312" y="105" width="110" height="50" as="geometry" />
        </mxCell>
        <mxCell id="_fpL3KS8KS125suL3_Od-147" value="Customer Id" style="ellipse;whiteSpace=wrap;html=1;fillColor=#ffcd28;strokeColor=#d79b00;gradientColor=#ffa500;" vertex="1" parent="_fpL3KS8KS125suL3_Od-146">
          <mxGeometry width="110" height="50" as="geometry" />
        </mxCell>
        <mxCell id="_fpL3KS8KS125suL3_Od-150" value="" style="endArrow=none;html=1;rounded=0;exitX=0.5;exitY=1;exitDx=0;exitDy=0;" edge="1" parent="_fpL3KS8KS125suL3_Od-217" source="_fpL3KS8KS125suL3_Od-145" target="_fpL3KS8KS125suL3_Od-136">
          <mxGeometry width="50" height="50" relative="1" as="geometry">
            <mxPoint x="142" y="165" as="sourcePoint" />
            <mxPoint x="207" y="191" as="targetPoint" />
          </mxGeometry>
        </mxCell>
        <mxCell id="_fpL3KS8KS125suL3_Od-151" value="" style="endArrow=none;html=1;rounded=0;" edge="1" parent="_fpL3KS8KS125suL3_Od-217" source="_fpL3KS8KS125suL3_Od-147" target="_fpL3KS8KS125suL3_Od-136">
          <mxGeometry width="50" height="50" relative="1" as="geometry">
            <mxPoint x="152" y="175" as="sourcePoint" />
            <mxPoint x="217" y="201" as="targetPoint" />
          </mxGeometry>
        </mxCell>
        <mxCell id="_fpL3KS8KS125suL3_Od-152" value="" style="endArrow=none;html=1;rounded=0;" edge="1" parent="_fpL3KS8KS125suL3_Od-217" source="_fpL3KS8KS125suL3_Od-149" target="_fpL3KS8KS125suL3_Od-136">
          <mxGeometry width="50" height="50" relative="1" as="geometry">
            <mxPoint x="162" y="185" as="sourcePoint" />
            <mxPoint x="227" y="211" as="targetPoint" />
          </mxGeometry>
        </mxCell>
        <mxCell id="_fpL3KS8KS125suL3_Od-155" value="" style="endArrow=none;html=1;rounded=0;" edge="1" parent="_fpL3KS8KS125suL3_Od-217" source="_fpL3KS8KS125suL3_Od-154" target="_fpL3KS8KS125suL3_Od-136">
          <mxGeometry width="50" height="50" relative="1" as="geometry">
            <mxPoint x="157" y="270" as="sourcePoint" />
            <mxPoint x="312" y="283" as="targetPoint" />
          </mxGeometry>
        </mxCell>
        <mxCell id="_fpL3KS8KS125suL3_Od-157" value="" style="group" vertex="1" connectable="0" parent="_fpL3KS8KS125suL3_Od-217">
          <mxGeometry x="127" y="25" width="110" height="50" as="geometry" />
        </mxCell>
        <mxCell id="_fpL3KS8KS125suL3_Od-158" value="Amount" style="ellipse;whiteSpace=wrap;html=1;fillColor=#ffcd28;strokeColor=#d79b00;gradientColor=#ffa500;" vertex="1" parent="_fpL3KS8KS125suL3_Od-157">
          <mxGeometry width="110" height="50" as="geometry" />
        </mxCell>
        <mxCell id="_fpL3KS8KS125suL3_Od-159" value="" style="endArrow=none;html=1;rounded=0;exitX=0.5;exitY=1;exitDx=0;exitDy=0;entryX=0.25;entryY=0;entryDx=0;entryDy=0;" edge="1" parent="_fpL3KS8KS125suL3_Od-217" source="_fpL3KS8KS125suL3_Od-158" target="_fpL3KS8KS125suL3_Od-136">
          <mxGeometry width="50" height="50" relative="1" as="geometry">
            <mxPoint x="67" y="115" as="sourcePoint" />
            <mxPoint x="182" y="125" as="targetPoint" />
          </mxGeometry>
        </mxCell>
        <mxCell id="_fpL3KS8KS125suL3_Od-160" value="" style="group" vertex="1" connectable="0" parent="_fpL3KS8KS125suL3_Od-217">
          <mxGeometry x="277" width="110" height="50" as="geometry" />
        </mxCell>
        <mxCell id="_fpL3KS8KS125suL3_Od-161" value="Quantity" style="ellipse;whiteSpace=wrap;html=1;fillColor=#ffcd28;strokeColor=#d79b00;gradientColor=#ffa500;" vertex="1" parent="_fpL3KS8KS125suL3_Od-160">
          <mxGeometry width="110" height="50" as="geometry" />
        </mxCell>
        <mxCell id="_fpL3KS8KS125suL3_Od-162" value="" style="endArrow=none;html=1;rounded=0;exitX=0.5;exitY=1;exitDx=0;exitDy=0;entryX=0.75;entryY=0;entryDx=0;entryDy=0;" edge="1" parent="_fpL3KS8KS125suL3_Od-217" source="_fpL3KS8KS125suL3_Od-161" target="_fpL3KS8KS125suL3_Od-136">
          <mxGeometry width="50" height="50" relative="1" as="geometry">
            <mxPoint x="217" y="90" as="sourcePoint" />
            <mxPoint x="332" y="100" as="targetPoint" />
          </mxGeometry>
        </mxCell>
        <mxCell id="_fpL3KS8KS125suL3_Od-165" value="" style="endArrow=none;html=1;rounded=0;" edge="1" parent="_fpL3KS8KS125suL3_Od-217" source="_fpL3KS8KS125suL3_Od-164" target="_fpL3KS8KS125suL3_Od-136">
          <mxGeometry width="50" height="50" relative="1" as="geometry">
            <mxPoint x="277" y="293" as="sourcePoint" />
            <mxPoint x="392" y="303" as="targetPoint" />
          </mxGeometry>
        </mxCell>
        <mxCell id="_fpL3KS8KS125suL3_Od-148" value="" style="group" vertex="1" connectable="0" parent="_fpL3KS8KS125suL3_Od-217">
          <mxGeometry x="349" y="175" width="110" height="50" as="geometry" />
        </mxCell>
        <mxCell id="_fpL3KS8KS125suL3_Od-149" value="Staff Id" style="ellipse;whiteSpace=wrap;html=1;fillColor=#ffcd28;strokeColor=#d79b00;gradientColor=#ffa500;" vertex="1" parent="_fpL3KS8KS125suL3_Od-148">
          <mxGeometry x="-2" width="110" height="50" as="geometry" />
        </mxCell>
        <mxCell id="_fpL3KS8KS125suL3_Od-221" value="&lt;font style=&quot;font-size: 14px;&quot;&gt;Place&lt;/font&gt;" style="rhombus;whiteSpace=wrap;html=1;fillColor=#f8cecc;gradientColor=#ea6b66;strokeColor=#b85450;" vertex="1" parent="_fpL3KS8KS125suL3_Od-217">
          <mxGeometry x="7" y="290" width="100" height="80" as="geometry" />
        </mxCell>
        <mxCell id="_fpL3KS8KS125suL3_Od-223" value="" style="endArrow=none;html=1;rounded=0;entryX=0.897;entryY=0.989;entryDx=0;entryDy=0;exitX=1;exitY=0.5;exitDx=0;exitDy=0;entryPerimeter=0;" edge="1" parent="_fpL3KS8KS125suL3_Od-217" source="_fpL3KS8KS125suL3_Od-221" target="_fpL3KS8KS125suL3_Od-136">
          <mxGeometry width="50" height="50" relative="1" as="geometry">
            <mxPoint x="-183" y="280" as="sourcePoint" />
            <mxPoint x="495" y="380" as="targetPoint" />
            <Array as="points">
              <mxPoint x="107" y="430" />
              <mxPoint x="305" y="430" />
            </Array>
          </mxGeometry>
        </mxCell>
        <mxCell id="_fpL3KS8KS125suL3_Od-163" value="" style="group" vertex="1" connectable="0" parent="_fpL3KS8KS125suL3_Od-217">
          <mxGeometry x="174.5" y="326" width="110" height="50" as="geometry" />
        </mxCell>
        <mxCell id="_fpL3KS8KS125suL3_Od-164" value="Type" style="ellipse;whiteSpace=wrap;html=1;fillColor=#ffcd28;strokeColor=#d79b00;gradientColor=#ffa500;" vertex="1" parent="_fpL3KS8KS125suL3_Od-163">
          <mxGeometry width="110" height="50" as="geometry" />
        </mxCell>
        <mxCell id="_fpL3KS8KS125suL3_Od-218" value="&lt;font style=&quot;font-size: 14px;&quot;&gt;Gives&lt;/font&gt;" style="rhombus;whiteSpace=wrap;html=1;fillColor=#f8cecc;gradientColor=#ea6b66;strokeColor=#b85450;" vertex="1" parent="1">
          <mxGeometry x="1110" y="560" width="100" height="80" as="geometry" />
        </mxCell>
        <mxCell id="_fpL3KS8KS125suL3_Od-219" value="" style="endArrow=none;html=1;rounded=0;exitX=0.658;exitY=0.988;exitDx=0;exitDy=0;exitPerimeter=0;" edge="1" parent="1" source="_fpL3KS8KS125suL3_Od-1" target="_fpL3KS8KS125suL3_Od-218">
          <mxGeometry width="50" height="50" relative="1" as="geometry">
            <mxPoint x="920" y="550" as="sourcePoint" />
            <mxPoint x="970" y="500" as="targetPoint" />
            <Array as="points">
              <mxPoint x="790" y="640" />
              <mxPoint x="1090" y="640" />
              <mxPoint x="1090" y="600" />
            </Array>
          </mxGeometry>
        </mxCell>
        <mxCell id="_fpL3KS8KS125suL3_Od-220" value="" style="endArrow=none;html=1;rounded=0;entryX=0.25;entryY=1;entryDx=0;entryDy=0;exitX=1;exitY=0.5;exitDx=0;exitDy=0;" edge="1" parent="1" source="_fpL3KS8KS125suL3_Od-218" target="_fpL3KS8KS125suL3_Od-186">
          <mxGeometry width="50" height="50" relative="1" as="geometry">
            <mxPoint x="920" y="550" as="sourcePoint" />
            <mxPoint x="970" y="500" as="targetPoint" />
            <Array as="points">
              <mxPoint x="1210" y="700" />
              <mxPoint x="1598" y="700" />
            </Array>
          </mxGeometry>
        </mxCell>
        <mxCell id="_fpL3KS8KS125suL3_Od-222" value="" style="endArrow=none;html=1;rounded=0;" edge="1" parent="1" target="_fpL3KS8KS125suL3_Od-221" source="_fpL3KS8KS125suL3_Od-1">
          <mxGeometry width="50" height="50" relative="1" as="geometry">
            <mxPoint x="775" y="404" as="sourcePoint" />
            <mxPoint x="975" y="314" as="targetPoint" />
            <Array as="points">
              <mxPoint x="1080" y="560" />
              <mxPoint x="1080" y="410" />
            </Array>
          </mxGeometry>
        </mxCell>
        <mxCell id="_fpL3KS8KS125suL3_Od-228" value="&lt;font style=&quot;font-size: 14px;&quot;&gt;Reserve&lt;/font&gt;" style="rhombus;whiteSpace=wrap;html=1;fillColor=#f8cecc;gradientColor=#ea6b66;strokeColor=#b85450;" vertex="1" parent="1">
          <mxGeometry x="563" y="680" width="100" height="80" as="geometry" />
        </mxCell>
        <mxCell id="_fpL3KS8KS125suL3_Od-229" value="" style="endArrow=none;html=1;rounded=0;entryX=0.5;entryY=1;entryDx=0;entryDy=0;exitX=1;exitY=0.75;exitDx=0;exitDy=0;" edge="1" parent="1">
          <mxGeometry width="50" height="50" relative="1" as="geometry">
            <mxPoint x="416" y="919" as="sourcePoint" />
            <mxPoint x="613" y="755" as="targetPoint" />
            <Array as="points">
              <mxPoint x="590" y="915" />
              <mxPoint x="610" y="915" />
            </Array>
          </mxGeometry>
        </mxCell>
        <mxCell id="_fpL3KS8KS125suL3_Od-230" value="" style="endArrow=none;html=1;rounded=0;entryX=0.5;entryY=1;entryDx=0;entryDy=0;exitX=1;exitY=0.5;exitDx=0;exitDy=0;" edge="1" parent="1" source="_fpL3KS8KS125suL3_Od-228" target="_fpL3KS8KS125suL3_Od-1">
          <mxGeometry width="50" height="50" relative="1" as="geometry">
            <mxPoint x="373" y="670" as="sourcePoint" />
            <mxPoint x="1051" y="770" as="targetPoint" />
            <Array as="points">
              <mxPoint x="770" y="720" />
            </Array>
          </mxGeometry>
        </mxCell>
        <mxCell id="_fpL3KS8KS125suL3_Od-231" value="&lt;font style=&quot;font-size: 14px;&quot;&gt;Has&lt;/font&gt;" style="rhombus;whiteSpace=wrap;html=1;fillColor=#f8cecc;gradientColor=#ea6b66;strokeColor=#b85450;" vertex="1" parent="1">
          <mxGeometry x="470" y="400" width="100" height="80" as="geometry" />
        </mxCell>
        <mxCell id="_fpL3KS8KS125suL3_Od-232" value="" style="endArrow=none;html=1;rounded=0;entryX=0;entryY=0.5;entryDx=0;entryDy=0;" edge="1" parent="1" target="_fpL3KS8KS125suL3_Od-231">
          <mxGeometry width="50" height="50" relative="1" as="geometry">
            <mxPoint x="220" y="640" as="sourcePoint" />
            <mxPoint x="460" y="440" as="targetPoint" />
            <Array as="points">
              <mxPoint x="220" y="470" />
              <mxPoint x="220" y="440" />
              <mxPoint x="430" y="440" />
            </Array>
          </mxGeometry>
        </mxCell>
        <mxCell id="_fpL3KS8KS125suL3_Od-233" value="" style="endArrow=none;html=1;rounded=0;exitX=0.5;exitY=0;exitDx=0;exitDy=0;" edge="1" parent="1" source="_fpL3KS8KS125suL3_Od-231">
          <mxGeometry width="50" height="50" relative="1" as="geometry">
            <mxPoint x="496" y="400" as="sourcePoint" />
            <mxPoint x="470" y="330" as="targetPoint" />
            <Array as="points">
              <mxPoint x="520" y="330" />
            </Array>
          </mxGeometry>
        </mxCell>
        <mxCell id="_fpL3KS8KS125suL3_Od-237" value="&lt;font style=&quot;font-size: 14px;&quot;&gt;Has&lt;/font&gt;" style="rhombus;whiteSpace=wrap;html=1;fillColor=#f8cecc;gradientColor=#ea6b66;strokeColor=#b85450;" vertex="1" parent="1">
          <mxGeometry x="663" y="270" width="100" height="80" as="geometry" />
        </mxCell>
        <mxCell id="_fpL3KS8KS125suL3_Od-238" value="" style="endArrow=none;html=1;rounded=0;exitX=1;exitY=0.5;exitDx=0;exitDy=0;" edge="1" parent="1" source="_fpL3KS8KS125suL3_Od-5" target="_fpL3KS8KS125suL3_Od-237">
          <mxGeometry width="50" height="50" relative="1" as="geometry">
            <mxPoint x="750" y="380" as="sourcePoint" />
            <mxPoint x="800" y="330" as="targetPoint" />
          </mxGeometry>
        </mxCell>
        <mxCell id="_fpL3KS8KS125suL3_Od-239" value="" style="endArrow=none;html=1;rounded=0;entryX=0.5;entryY=1;entryDx=0;entryDy=0;exitX=1;exitY=0.5;exitDx=0;exitDy=0;" edge="1" parent="1" source="_fpL3KS8KS125suL3_Od-237" target="_fpL3KS8KS125suL3_Od-4">
          <mxGeometry width="50" height="50" relative="1" as="geometry">
            <mxPoint x="750" y="380" as="sourcePoint" />
            <mxPoint x="800" y="330" as="targetPoint" />
            <Array as="points">
              <mxPoint x="870" y="310" />
            </Array>
          </mxGeometry>
        </mxCell>
        <mxCell id="_fpL3KS8KS125suL3_Od-240" value="&lt;span style=&quot;font-size: 14px;&quot;&gt;Deal&lt;/span&gt;" style="rhombus;whiteSpace=wrap;html=1;fillColor=#f8cecc;gradientColor=#ea6b66;strokeColor=#b85450;" vertex="1" parent="1">
          <mxGeometry x="1640" y="330" width="100" height="80" as="geometry" />
        </mxCell>
        <mxCell id="_fpL3KS8KS125suL3_Od-241" value="" style="endArrow=none;html=1;rounded=0;entryX=1;entryY=0.5;entryDx=0;entryDy=0;exitX=1;exitY=0.5;exitDx=0;exitDy=0;" edge="1" parent="1" source="_fpL3KS8KS125suL3_Od-166" target="_fpL3KS8KS125suL3_Od-240">
          <mxGeometry width="50" height="50" relative="1" as="geometry">
            <mxPoint x="1190" y="670" as="sourcePoint" />
            <mxPoint x="1240" y="620" as="targetPoint" />
            <Array as="points">
              <mxPoint x="1830" y="840" />
              <mxPoint x="1830" y="370" />
            </Array>
          </mxGeometry>
        </mxCell>
        <mxCell id="_fpL3KS8KS125suL3_Od-242" value="" style="endArrow=none;html=1;rounded=0;entryX=1;entryY=1;entryDx=0;entryDy=0;exitX=0;exitY=0.5;exitDx=0;exitDy=0;" edge="1" parent="1" source="_fpL3KS8KS125suL3_Od-240" target="_fpL3KS8KS125suL3_Od-136">
          <mxGeometry width="50" height="50" relative="1" as="geometry">
            <mxPoint x="1190" y="670" as="sourcePoint" />
            <mxPoint x="1240" y="620" as="targetPoint" />
            <Array as="points">
              <mxPoint x="1425" y="370" />
            </Array>
          </mxGeometry>
        </mxCell>
        <mxCell id="_fpL3KS8KS125suL3_Od-243" value="&lt;font style=&quot;font-size: 14px;&quot;&gt;Has&lt;/font&gt;" style="rhombus;whiteSpace=wrap;html=1;fillColor=#f8cecc;gradientColor=#ea6b66;strokeColor=#b85450;" vertex="1" parent="1">
          <mxGeometry x="590" y="960" width="100" height="80" as="geometry" />
        </mxCell>
        <mxCell id="_fpL3KS8KS125suL3_Od-245" value="" style="endArrow=none;html=1;rounded=0;entryX=0.5;entryY=1;entryDx=0;entryDy=0;exitX=1;exitY=0.5;exitDx=0;exitDy=0;" edge="1" parent="1" source="_fpL3KS8KS125suL3_Od-243" target="_fpL3KS8KS125suL3_Od-118">
          <mxGeometry width="50" height="50" relative="1" as="geometry">
            <mxPoint x="780" y="670" as="sourcePoint" />
            <mxPoint x="830" y="620" as="targetPoint" />
            <Array as="points">
              <mxPoint x="849" y="1000" />
            </Array>
          </mxGeometry>
        </mxCell>
        <mxCell id="_fpL3KS8KS125suL3_Od-246" value="" style="endArrow=none;html=1;rounded=0;entryX=0;entryY=0.5;entryDx=0;entryDy=0;exitX=0.396;exitY=0.989;exitDx=0;exitDy=0;exitPerimeter=0;" edge="1" parent="1" source="_fpL3KS8KS125suL3_Od-8" target="_fpL3KS8KS125suL3_Od-243">
          <mxGeometry width="50" height="50" relative="1" as="geometry">
            <mxPoint x="780" y="670" as="sourcePoint" />
            <mxPoint x="830" y="620" as="targetPoint" />
            <Array as="points">
              <mxPoint x="344" y="1000" />
            </Array>
          </mxGeometry>
        </mxCell>
      </root>
    </mxGraphModel>
  </diagram>
</mxfile>
